<svg version="1.1" xmlns="http://www.w3.org/2000/svg" xmlns:xlink="http://www.w3.org/1999/xlink"
	 viewBox="0 0 400 400" xml:space="preserve">
<path fill="none" stroke="none"
	d="
M262.000000,401.000000
	C174.666672,401.000000 87.833336,401.000000 1.000000,401.000000
	C1.000000,267.666656 1.000000,134.333328 1.000000,1.000000
	C134.333328,1.000000 267.666656,1.000000 401.000000,1.000000
	C401.000000,134.333328 401.000000,267.666656 401.000000,401.000000
	C354.833344,401.000000 308.666656,401.000000 262.000000,401.000000
M64.342430,250.865738
	C60.520271,261.091919 54.824562,271.049805 53.312923,281.606842
	C51.017330,297.638855 51.616745,314.086426 51.019569,330.358673
	C50.973118,331.624390 51.186829,332.899597 51.264969,333.969788
	C123.545021,333.969788 195.438980,333.969788 267.228333,333.969788
	C267.464752,333.392487 267.692902,333.095245 267.693237,332.797729
	C267.725311,303.484039 267.768860,274.170227 267.666687,244.856888
	C267.661835,243.469162 266.694458,241.678848 265.600098,240.764481
	C256.014374,232.755310 248.454987,223.215485 242.877289,212.033447
	C242.154968,210.585342 240.573212,209.204239 239.062805,208.568558
	C227.762665,203.812744 215.976776,201.076523 203.675629,201.020508
	C186.187485,200.940857 168.695084,200.770660 151.210953,201.047211
	C113.462509,201.644272 84.699806,218.269363 64.342430,250.865738
M124.170547,155.323639
	C141.999573,171.845947 162.995041,178.591721 187.039444,175.169678
	C229.669815,169.102463 258.572449,127.674240 249.570557,85.822617
	C240.340164,42.908764 197.580429,16.855167 155.791229,28.682671
	C99.924950,44.494377 82.532547,112.678734 124.170547,155.323639
M375.231323,166.367264
	C370.633270,136.525177 343.933929,115.896393 312.440704,117.853203
	C288.498077,119.340858 266.535431,138.137680 260.961731,161.911652
	C254.891983,187.801605 265.654999,213.168137 288.596527,226.369934
	C291.773743,228.198273 292.862152,230.094482 292.838379,233.732895
	C292.665497,260.230225 292.712433,286.729309 292.805542,313.227417
	C292.812622,315.234528 293.073914,317.835907 294.300842,319.146149
	C301.780640,327.134003 309.574127,334.828094 316.686798,342.036255
	C330.927307,327.886108 344.776794,314.124542 359.239838,299.753235
	C351.251617,291.983368 343.055725,284.011505 334.195038,275.393005
	C342.613495,267.264526 350.926514,259.237854 359.889252,250.583847
	C352.629700,243.747711 345.766052,237.284378 338.709778,230.639648
	C368.112885,217.781647 379.050934,190.767090 375.231323,166.367264
z"/>
<path fill="currentColor" opacity="1.000000" stroke="none"
	d="
M64.542938,250.558685
	C84.699806,218.269363 113.462509,201.644272 151.210953,201.047211
	C168.695084,200.770660 186.187485,200.940857 203.675629,201.020508
	C215.976776,201.076523 227.762665,203.812744 239.062805,208.568558
	C240.573212,209.204239 242.154968,210.585342 242.877289,212.033447
	C248.454987,223.215485 256.014374,232.755310 265.600098,240.764481
	C266.694458,241.678848 267.661835,243.469162 267.666687,244.856888
	C267.768860,274.170227 267.725311,303.484039 267.693237,332.797729
	C267.692902,333.095245 267.464752,333.392487 267.228333,333.969788
	C195.438980,333.969788 123.545021,333.969788 51.264969,333.969788
	C51.186829,332.899597 50.973118,331.624390 51.019569,330.358673
	C51.616745,314.086426 51.017330,297.638855 53.312923,281.606842
	C54.824562,271.049805 60.520271,261.091919 64.542938,250.558685
z"/>
<path fill="currentColor" opacity="1.000000" stroke="none"
	d="
M123.884850,155.105316
	C82.532547,112.678734 99.924950,44.494377 155.791229,28.682671
	C197.580429,16.855167 240.340164,42.908764 249.570557,85.822617
	C258.572449,127.674240 229.669815,169.102463 187.039444,175.169678
	C162.995041,178.591721 141.999573,171.845947 123.884850,155.105316
z"/>
<path fill="currentColor" opacity="1.000000" stroke="none"
	d="
M375.315094,166.800293
	C379.050934,190.767090 368.112885,217.781647 338.709778,230.639648
	C345.766052,237.284378 352.629700,243.747711 359.889252,250.583847
	C350.926514,259.237854 342.613495,267.264526 334.195038,275.393005
	C343.055725,284.011505 351.251617,291.983368 359.239838,299.753235
	C344.776794,314.124542 330.927307,327.886108 316.686798,342.036255
	C309.574127,334.828094 301.780640,327.134003 294.300842,319.146149
	C293.073914,317.835907 292.812622,315.234528 292.805542,313.227417
	C292.712433,286.729309 292.665497,260.230225 292.838379,233.732895
	C292.862152,230.094482 291.773743,228.198273 288.596527,226.369934
	C265.654999,213.168137 254.891983,187.801605 260.961731,161.911652
	C266.535431,138.137680 288.498077,119.340858 312.440704,117.853203
	C343.933929,115.896393 370.633270,136.525177 375.315094,166.800293
M301.135132,161.107956
	C302.349884,173.448456 317.579742,181.331696 328.731140,171.607986
	C334.286804,166.763596 335.811920,158.575012 332.547546,151.992920
	C329.145081,145.132339 321.181976,141.420364 313.651306,143.184555
	C306.206482,144.928619 301.374756,151.505646 301.135132,161.107956
z"/>
<path fill="none" stroke="none"
	d="
M301.114929,160.692383
	C301.374756,151.505646 306.206482,144.928619 313.651306,143.184555
	C321.181976,141.420364 329.145081,145.132339 332.547546,151.992920
	C335.811920,158.575012 334.286804,166.763596 328.731140,171.607986
	C317.579742,181.331696 302.349884,173.448456 301.114929,160.692383
z"/>
</svg>